# xmcd
#
# Track frame offsets: 
#        150
#        16822
#        46465
#        76699
#        104491
#        129490
#        159466
#        191935
#        228038
#        255017
#        295524
#
# Disc length: 4417 seconds
#
# Revision: 1
# Processed by: cddbd v1.5.2PL0 Copyright (c) Steve Scherf et al.
# Submitted via: ExactAudioCopy v1.0b1
#
DISCID=7d113f0b
DTITLE=Various Artist - Club Cocktail 97 CD2
DYEAR=1997
DGENRE=Trance, Euro House, House
TTITLE0=Byron Stingily - Get Up! (Mousse T.'s Radio Mix)
TTITLE1=Mousse T. - Everybody
TTITLE2=DJ Tonka - Happiness
TTITLE3=X-Pact - Excess Part 2
TTITLE4=Green Velvet - Answering Machine
TTITLE5=Der Dritte Raum - Trommelmaschine
TTITLE6=DJ HMC - Track 2
TTITLE7=Thomas Schumacher - Shelford Road
TTITLE8=Dave Angel - Timeless
TTITLE9=Massimo Vivona - Counterfeit
TTITLE10=Emmanuel Top - Turkish Bazar (Future Breeze Mix)
EXTD=
EXTT0=
EXTT1=
EXTT2=
EXTT3=
EXTT4=
EXTT5=
EXTT6=
EXTT7=
EXTT8=
EXTT9=
EXTT10=
PLAYORDER=
